<?xml version="1.0" encoding="utf-8"?>

<!DOCTYPE svg PUBLIC "-//W3C//DTD SVG 1.1//EN" "http://www.w3.org/Graphics/SVG/1.1/DTD/svg11.dtd">
<!-- Uploaded to: SVG Repo, www.svgrepo.com, Generator: SVG Repo Mixer Tools -->
<svg height="800px" width="800px" version="1.1" id="_x32_" xmlns="http://www.w3.org/2000/svg" xmlns:xlink="http://www.w3.org/1999/xlink" 
	 viewBox="0 0 512 512"  xml:space="preserve">
	<style type="text/css">
		.st0{fill:#000000;}
	</style>
	<g>
		<path class="st0" d="M310.308,86.496c13.919,9.238,32.698,5.438,41.918-8.481c9.238-13.911,5.429-32.689-8.473-41.91
			c-13.919-9.237-32.679-5.437-41.918,8.482C292.598,58.498,296.407,77.276,310.308,86.496z"/>
		<path class="st0" d="M371.681,127.203c13.919,9.229,32.679,5.429,41.899-8.472c9.238-13.929,5.447-32.698-8.473-41.927
			c-13.918-9.229-32.679-5.438-41.918,8.481C353.953,99.205,357.761,117.966,371.681,127.203z"/>
		<path class="st0" d="M289.678,129.509c-9.22,13.91-5.429,32.689,8.491,41.908c13.901,9.238,32.679,5.447,41.918-8.472
			c9.22-13.928,5.429-32.698-8.491-41.918C317.677,111.789,298.9,115.589,289.678,129.509z"/>
		<path class="st0" d="M39.935,98.671c29.476,15.129,63.455,53.78,67.3,82.384c3.133,23.113,45.442-58.542,82.287,6.951
			c12.264-8.775,34.69-43.502,70.949-22.712c3.043-5.633,7.422-10.839,12.442-15.539c-0.801-9.14,1.37-18.618,6.817-26.842
			c0.748-1.104,1.514-2.162,2.332-3.194c-36.952-3.098-89.781-8.696-89.318-15.477c0.641-10.421,125.629-2.101,125.629-2.101
			s-36.881-21.964-50.693-49.838c-38.608,16.038-56.442-21.306-67.478-31.558c-44.855,60.304-76.467-26.085-82.518-3.515
			c-7.423,27.865-45.567,63.428-77.232,73.111C36.767,91.471,33.474,95.405,39.935,98.671z"/>
		<path class="st0" d="M474.188,204.427c-13.741-6.177-55.054-8.126-55.285-49.919c-31.042-1.877-65.626-27.331-65.626-27.331
			S409.522,239.1,400.16,243.763c-6.069,3.016-31.736-43.369-48.931-76.173c-0.409,0.676-0.783,1.317-1.21,1.958
			c-5.553,8.366-13.599,14.079-22.498,16.874c-2.457,6.88-5.679,13.368-9.914,18.672c33.232,25.328,9.967,59.468,6.621,74.206
			c74.687,8.482,15.913,79.226,38.429,73.093c27.857-7.61,76.627,8.704,102.063,30.001c5.536,4.646,7.885,0.08,7.476-3.72
			c-3.382-32.964,14.524-81.922,37.326-99.632C527.978,264.704,436.097,269.18,474.188,204.427z"/>
		<path class="st0" d="M342.151,298.337c-3.381-2.243-7.92-3.925-13.545-5.118c-3.15,11.953-7.298,24.092-12.193,36.195
			c-23.068,56.967-8.01,78.727-8.864,105.311c-45.388-14.418-92.985-37.058-139.156-67.683
			c-46.172-30.615-85.526-65.68-116.444-101.884c24.136-11.116,50.034-5.722,93.572-49.126
			c10.146-10.137,20.736-19.463,31.558-27.572c-3.525-5.251-7.12-9.113-10.751-11.516c-1.78-1.183-3.578-1.939-5.393-2.358
			c-10.021,7.734-20.06,16.634-30.152,26.663c-27.465,27.394-45.673,32.226-63.278,36.89c-18.6,4.93-39.692,10.51-60.998,39.398
			c-3.916,5.296-8.135,14.347-5.874,27.189c2.172,12.193,10.413,33.187,56.852,74.295c4.93,4.334,10.039,8.704,15.183,12.966
			c-3.274,13.074-2.634,26.726,1.549,39.23c4.787,14.258,14.221,27.136,27.678,36.061c13.491,8.954,29.013,12.629,43.982,11.464
			c13.172-0.98,26.006-5.714,36.774-13.804c5.928,3.08,11.908,6.079,17.835,8.945c55.944,26.806,78.478,26.236,90.564,23.486
			c12.71-2.902,19.401-10.306,22.766-15.975c18.333-30.864,15.272-52.455,12.566-71.518c-2.546-18.04-5.18-36.711,9.398-72.64
			c4.646-11.552,8.473-22.668,11.552-33.428C346.138,301.727,344.466,299.876,342.151,298.337z M144.293,457.943
			c-10.537,0.792-21.323-1.762-30.846-8.045c-9.504-6.336-16.055-15.298-19.454-25.301c-1.869-5.652-2.687-11.57-2.474-17.498
			c13.1,10.155,25.275,18.956,33.944,24.688c8.65,5.75,21.484,13.545,35.938,21.662C155.987,455.941,150.22,457.481,144.293,457.943z
			M295.873,470.75c-16.696,28.141-128.921-36.462-158.895-56.344C107.003,394.524,3.856,316.261,23.274,289.909
			c7.085-9.567,13.795-15.806,20.523-20.212l-6.693,5.642c32.289,38.082,73.298,74.696,121.41,106.618
			c48.112,31.906,97.79,55.454,145.421,70.388l2.598-8.348C305.093,451.9,301.96,460.507,295.873,470.75z"/>
	</g>
</svg>